<svg xmlns="http://www.w3.org/2000/svg" viewBox="0 0 619.71 296.11"><defs><style>.cls-1{fill:#0921ea;}</style></defs><g id="Layer_2" data-name="Layer 2"><g id="Layer_1-2" data-name="Layer 1"><path class="cls-1" d="M61,.78H71.58V82.62H61V21.14L42.72,83.5l-6.88-2.88L29,83.5,10.55,21V82.62H0V.78H10.55V5.22L15.87.83,35.84,71,55.81.83,61,5.22Z"/><path class="cls-1" d="M115.65,25.44h10.4V82.86h-10.4v-5L114,79.74l-5.52,2.58-6.54.74L96,82.28l-6.45-4.94-4.39-5.76-2.49-6.25L82,59.42v-34H92.36V59.77l.39,3.17,1.12,2.78,2.39,3.18,3.32,2.54,2.49.34,4-.49,2.39-1.12,2.69-3,1-1.52,3.47,3.91Z"/><path class="cls-1" d="M159.57,69.38l2,12.16-5.47,1.37-4.39,0L146,78.86,143,73.29l-.88-5.91V37.16h-8V25.63h8V13.82h10.35V25.63h8V37.16h-8V66.31l.39,2.49.54.88,1.07.73H155Z"/><path class="cls-1" d="M203,25.44h10.4V82.86H203v-5l-1.66,1.86-5.52,2.58-6.54.74-5.91-.78-6.44-4.94-4.4-5.76L170,65.33l-.68-5.91v-34h10.35V59.77l.39,3.17,1.12,2.78,2.4,3.18,3.32,2.54,2.49.34,4-.49,2.39-1.12,2.69-3,1-1.52L203,69.58Z"/><path class="cls-1" d="M264.94,44.82l.24,6.16V82.76H254.83v-6.1L252,79.05l-5,2.88-6.54,1.13-6.5-1.13L228.17,79l-4-4.39-2.3-6.1-.63-5.18,2-6.49,3.27-4.79,5-2.29,5.91-1.47h17.28l0-.58-1.51-4.3L250.34,39l-3.18-1.46-4.29-.39-3.57.83-3.46,2.78-3.47,3.37-1,1.08-7-9.13,1.37-1.52,4.49-4.39,5.71-3.32,6.3-1.57,7.28.74,6.78,3.17L262,36.57ZM251.51,66.26l3.32,4.35V57.67H238.47l-2.73.68-2.05,1.71L232,61.72l-.59,3,.54,2.63.73.93,1.12,1.27L236.76,71l3.67.64,3.51-.59,2.88-.92,3.42-1.91Z"/><path class="cls-1" d="M273.55,82.91V2.2h10.36V82.91Z"/><path class="cls-1" d="M342,82.91l-8.3-25.24H308.44l-8.1,25.24-9.92-4.25L315,0l6.11,2.64L327.29,0,351.9,78.66ZM309.56,53l5.38-6.79h16l-9.76-34.33Z"/><path class="cls-1" d="M366.18,15.19H360l-4.15-4.25V5.08L360,1h6.15l4.3,4.1v5.86Zm-8.3,67.67V25.44h10.35V82.86Z"/><path class="cls-1" d="M413,2.1h10.35V82.76H413V76.32l-1.17,1.12-6.11,4.1-7.56,1.52-7.38-2.93-6.54-5.62-4.44-7.66L377,58.45l.34-6,1-6,4-10.64,5.13-5.91,8.74-4.59h8.06l7.47,3.57L413,30.37Zm-3.37,62.06,3.37,4.3V37.6L410,41.5l-.92-1L406,38.38l-3.57-1.76h-3.9l-5,2.69-2.64,3-2.49,5.61-.83,4.1v4.74l1.56,5.37,2.74,4.74,3.81,3.22L399,71.48l3.22-.68L406,68.36l2.93-2.93Z"/><path class="cls-1" d="M438.39,71.48h5.08l3.61,3.32v4.94l-3.61,3.37h-5.08L435,79.69V74.85Z"/><path class="cls-1" d="M530.49,4.05,513.84,82.71l-6.64-1.95-6.64,1.91-12.8-70.56-12.84,70.6-6.64-1.95-6.64,1.91L445.09,4.05,455.34,1l12.94,70,13-70,6.44,2L494.26,1l13,70,13-70Z"/><path class="cls-1" d="M546.52,15.19h-6.15l-4.15-4.25V5.08L540.37,1h6.15l4.3,4.1v5.86Zm-8.3,67.67V25.44h10.35V82.86Z"/><path class="cls-1" d="M597.82,77.73l-7.62,6.35L576,60.45l-2.2,3.66-3.37-4.3v23H560.12V2.1h10.35V48.34l15-24.8,7.28,7.51L580.48,51Z"/><path class="cls-1" d="M615.42,15.19h-6.15l-4.15-4.25V5.08L609.27,1h6.15l4.29,4.1v5.86Zm-8.3,67.67V25.44h10.35V82.86Z"/><path class="cls-1" d="M163.07,122.69h-6.15l-4.15-4.25v-5.86l4.15-4.1h6.15l4.3,4.1v5.86Zm-8.3,67.68V133h10.35v57.42Z"/><path class="cls-1" d="M215.73,164.39l2.45,4.3-.15,8.25-4,6.2-5.52,4.25-5.72,2.2-6,.78-5.71-.69L185,187.44l-5.71-4.05-3-3.81-2.05-3.37,8.35-7.42,1.71,4.05,1.51,1.95,3.37,2.39,3.91,1.42,3.71.44,3.76-.44,3.42-1.37L206.9,175l.83-2.49v-1l-.74-2.25-1.27-1.17-5.12-2-7.47-1-4.93-1.75L185,162.19l-3.51-2.39L178.14,157l-1.57-3.52v-6.44l2.74-5.52,3.9-4.69,6.65-3.56,7.66-.93,6.94.93,6.44,3.37,2.93,2.63,1.46,1.76L208,149.89l-.93-2.1-1.41-1.46-4-2.06-4.25-.58-4.88.58-3.37,1.81-1.66,2-.63,2.44V151l.09.34,1.13,1.52,1.07.78,2.15.78,4.2,1.47,9,2.14,6.89,2.49Z"/><path class="cls-1" d="M265.49,114.44h5V190H260V119h-8.3v-6.74l13.82-3.86Z"/><path class="cls-1" d="M332,149.94V150l.14,4.15-.29,3.71-.59,3.66-.92,5.13-1.71,5.91-3.27,6.78-4,4.45L317,186.85,311.82,189l-3.81.88-3.76-.49-3.9-.68-3.23-1.47-3.46-2-3.13-3-2.44-2.68-2.15-3.76-1.75-4.54-1.27-3.71-.93-3.91-.59-4.3-.44-4.39-.39-1.08,7.86-.87h-8.15v-3.91l.44-5.23.78-5.51,1-5.76,1.27-5,1.9-4.89,2.88-4.88,3.61-4,5.13-3.67,5.27-2,3.76-.29,3.23.29,4.54,1.22,4.34,2.83,4.2,2.89,3,4.19,2.05,4.06,2,4.78,1.51,5.91.49,5.37,1.07,10.26Zm-10.6,7.47.25-3.52-.15-3.85v-5.28l-.39-3.9-.34-4.3-1-3.76-1.37-4.54L317,125.33l-1.32-2-2.39-1.71-2.88-1.81-2.44-.63-1.66-.2-1.81.2-2.88,1-3,2.2-2,2.39-1.76,3-1.17,4.35-1,3.61-.83,5-.63,4.83-.34,4.11v3.07l.19-.05.25,2.93.58,3.32.39,3.13.64,2.59,1,3,1.22,3,1,1.76,1.27,1.42,1.95,1.9,2,1.17,1.71.78,2.64.49,1.86.2,1.56-.39,3.42-1.47,2.63-1.81,2-2.1,2-4.15,1.17-4,.73-4.25Z"/><path class="cls-1" d="M392.38,149.94V150l.15,4.15-.29,3.71-.59,3.66-.93,5.13-1.7,5.91-3.28,6.78-4,4.45-4.44,3.07L372.17,189l-3.81.88-3.76-.49-3.9-.68-3.23-1.47-3.46-2-3.13-3-2.44-2.68-2.15-3.76-1.76-4.54-1.27-3.71-.92-3.91-.59-4.3-.44-4.39-.39-1.08,7.86-.87h-8.15v-3.91l.44-5.23.78-5.51,1-5.76,1.27-5,1.91-4.89,2.88-4.88,3.61-4,5.13-3.67,5.27-2,3.76-.29,3.23.29,4.54,1.22,4.34,2.83,4.2,2.89,3,4.19,2.05,4.06,1.95,4.78,1.52,5.91.49,5.37L393,149.65Zm-10.59,7.47.24-3.52-.14-3.85v-5.28l-.39-3.9-.35-4.3-1-3.76-1.37-4.54-1.51-2.93-1.32-2-2.39-1.71-2.88-1.81-2.45-.63-1.66-.2-1.8.2-2.88,1-3,2.2-2.05,2.39-1.76,3L354,132.12l-1,3.61-.83,5-.63,4.83-.35,4.11v3.07l.2-.05.24,2.93.59,3.32.39,3.13.63,2.59,1,3,1.22,3,1,1.76,1.27,1.42,1.95,1.9,2,1.17,1.71.78,2.64.49,1.85.2,1.57-.39,3.41-1.47,2.64-1.81,1.95-2.1,2-4.15,1.17-4,.73-4.25Z"/><path class="cls-1" d="M429.2,141.49,425,147.16l-5.81,3.32h-7.23l-6.39-3.13L402,142.27l-2.63-5.47-.2-9.27,2.74-7L406,116l4.63-3,3.37.14h5.13l3.86,2.3,3.46,2.49,3.81,5.56.93,6.06v6.1ZM411,138.27l2.83,1.27h3l2-1.17,1.85-2.54.83-2.25v-3.12l-.39-2.4-1.32-2-1.71-1.17-1.36-.83h-3l-.93,0-1.46.93-2,2.24-1.13,2.69.15,3.86,1.07,2.29Zm41.45-23.44-29.83,85.11-9.33-4.05,29.79-85.11Zm11.33,52.74,2.68,5.61.2,9.23-2.74,7-4,4.44-4.39,3.23-3.47.24h-5.52l-3.95-2.68L439.26,192l-3.66-5.32-1.18-6.11v-6.39l2.25-5.72,4.39-5.51,5.77-2.93h7l6.35,2.73Zm-9.43,17.57,2.06-2.34,1.12-2.73-.15-3.81L456.35,174l-1.42-1.95-2.83-1.22h-3.22l-2,1.12-2.1,2.54-.74,2.05v2.83l.44,2.39L446,184l1.9,1.56,1.32.88h2.54l.88,0Z"/><path class="cls-1" d="M66.42,242.59,50.36,296.11l-6.25-2.64-6.25,2.64L21.79,242.59l9.82-4.1,12.5,46.14,12.5-46.14Z"/><path class="cls-1" d="M116.54,253.43l3.08,11-.58,7.47-2.5,8.84-4.39,7.12L104.63,294l-9.47,2.1-8.5-1.37-6.74-4.59-6-8.45-2.74-9.76-.68-5.18,1.37-9.08,4.34-9L84,240.93l9.66-2.44h3.76l6.2,1.81,7.82,4.93Zm-7.81,17.19.39-4.54-1.9-8.06-2.69-4.3-4.59-2.88-3.76-1.12H94.77l-6.11,1.56-4.49,4.4-2.44,5.17-.83,6.5.44,3.17,1.71,6.1,3.56,5L90,283.9l4.88.78,5.72-1.27,4.25-3.47,2.34-3.8Z"/><path class="cls-1" d="M127.7,295.91V215.2h10.35v80.71Z"/><path class="cls-1" d="M182.36,238.44h10.4v57.42h-10.4v-5l-1.66,1.86-5.51,2.58-6.55.74-5.91-.78-6.44-4.94-4.4-5.76-2.49-6.25-.68-5.91v-34h10.35v34.33l.39,3.17,1.13,2.78L163,281.9l3.32,2.54,2.49.34,4-.49,2.4-1.12,2.68-3,1-1.52,3.46,3.91Z"/><path class="cls-1" d="M245.62,252.4l1.66,7.91v35.5H236.93v-35l-.83-4-2-3.62L231,250.16l-3.81-1-4.44.54-3.27,2.49L217,255.14l-3.32-4.3v45h-10.4V238.39h10.4v8.11l3.07-4.35,3.18-2.83,8-1,7.37,2,6.44,4.74Z"/><path class="cls-1" d="M279.3,282.39l2,12.15-5.47,1.37-4.39,0-5.76-4.1-2.93-5.57-.88-5.91V250.16h-8V238.64h8V226.82h10.35v11.82h8v11.52h-8v29.15l.39,2.49.54.88,1.07.73h.54Z"/><path class="cls-1" d="M322.1,277.94l1.8-2.49,7.62,7.42-2.15,2.79L326,289.32,320,293.91l-7.47,1.71h-5.62l-1-.1-7.37-3.27-6-5L288.5,278l-2-7.47.05-8,2.05-7.67,3.61-7.22,7.13-7,7.72-2.78,5.76,0,7.08,2.83,6.15,5.18,4.3,7,2.1,6.69.68,4.84-4.2.83.29,4.1-32.12,2.1.73,4.39,2.68,4.06,2.93,2.44,4.4,2,3.71.05,4.49-1,3.66-2.83ZM300.17,254.8l-2.05,5.27-.49,2.78v3.91l3.52-4.15,20.46-1.37-.44-3.61-2.39-3.86L315.16,251l-4-1.56h-2.49L304.32,251Z"/><path class="cls-1" d="M374.07,277.94l1.81-2.49,7.62,7.42-2.15,2.79-3.42,3.66-6,4.59-7.47,1.71h-5.61l-1-.1-7.37-3.27-6-5-4-9.18-2-7.47,0-8,2.05-7.67,3.61-7.22,7.13-7L359,238l5.76,0,7.09,2.83,6.15,5.18,4.29,7,2.1,6.69.69,4.84-4.2.83.29,4.1-32.13,2.1.73,4.39,2.69,4.06,2.93,2.44,4.39,2,3.72.05,4.49-1,3.66-2.83ZM352.15,254.8l-2,5.27-.49,2.78v3.91l3.51-4.15,20.46-1.37-.44-3.61-2.39-3.86L367.14,251l-4-1.56h-2.49L356.3,251Z"/><path class="cls-1" d="M420.14,238.83l3.71,1.27-2.88,12-2.83-2.63-2.39-.54-3.13.34-3.91,3.08-1.95,2.54-3.22-4.3v45.21H393.19V238.34h10.35v4.89l6.84-3.91,5.17-1Z"/><path class="cls-1" d="M416.36,270.32v-9.18h31.25v9.18Z"/><path class="cls-1" d="M484.4,238.83l3.71,1.27-2.88,12-2.84-2.63-2.39-.54-3.12.34L473,252.31l-2,2.54-3.23-4.3v45.21H457.44V238.34h10.35v4.89l6.84-3.91,5.18-1Z"/><path class="cls-1" d="M527.58,238.44H538v57.42h-10.4v-5l-1.66,1.86-5.51,2.58-6.55.74-5.9-.78-6.45-4.94-4.39-5.76-2.5-6.25-.68-5.91v-34h10.35v34.33l.39,3.17,1.13,2.78,2.39,3.18,3.32,2.54,2.49.34,4-.49,2.4-1.12,2.68-3,1-1.52,3.46,3.91Z"/><path class="cls-1" d="M590.84,252.4l1.66,7.91v35.5H582.15v-35l-.83-4-2-3.62-3.13-3.12-3.81-1-4.44.54-3.27,2.49-2.54,2.93-3.32-4.3v45h-10.4V238.39h10.4v8.11l3.07-4.35,3.18-2.83,8-1,7.37,2,6.44,4.74Z"/></g></g></svg>