<?xml version="1.0" encoding="utf-8"?>
<!-- Generator: Adobe Illustrator 24.1.2, SVG Export Plug-In . SVG Version: 6.00 Build 0)  -->
<svg version="1.1" id="Layer_1" xmlns="http://www.w3.org/2000/svg" xmlns:xlink="http://www.w3.org/1999/xlink" x="0px" y="0px"
	 viewBox="0 0 53.2 52.9" style="enable-background:new 0 0 53.2 52.9;" xml:space="preserve">
<style type="text/css">
	.st0{fill:#0921EA;}
</style>
<g id="Layer_2_1_">
	<g id="Layer_1-2">
		<path class="st0" d="M53.2,26.3c0,3.6-1.5,6.9-2.7,9.9s-2.6,6.4-5.1,8.9c-2.5,2.4-5.5,4.3-8.7,5.5c-3.2,1.4-6.6,2.1-10.1,2.2
			c-3.4-0.1-6.8-0.8-10-2.1c-1.6-0.6-3.1-1.5-4.5-2.5c-1.4-1-2.7-2.1-4-3.3c-2.6-2.3-4.7-5.2-6-8.4c-0.3-0.8-0.6-1.7-0.8-2.5
			s-0.4-1.7-0.7-2.5c-0.3-0.8-0.4-1.7-0.4-2.6C0,28,0,27.2,0,26.3c0.1-3.5,0.7-6.9,2-10.1c0.7-1.6,1.5-3.1,2.5-4.5
			c1-1.4,2.1-2.8,3.2-4c1.2-1.3,2.4-2.5,3.8-3.6c0.7-0.6,1.4-1.1,2.1-1.5c0.4-0.2,0.8-0.5,1.2-0.6c0.4-0.2,0.9-0.3,1.3-0.4
			c3.3-1.1,6.8-1.6,10.3-1.5c3.5,0,6.9,0.8,10.1,2.2c1.5,0.7,3.1,1.4,4.6,2.3c1.6,0.8,3.1,1.8,4.4,2.9c1.3,1.2,2.4,2.6,3.2,4.2
			c0.4,0.8,0.7,1.6,0.9,2.5c0.3,0.8,0.7,1.6,1,2.3c0.8,1.5,1.4,3.1,1.8,4.8C52.9,22.8,53.1,24.6,53.2,26.3z M51.6,26.3
			c0-1.6-0.3-3.2-0.8-4.8c-0.5-1.5-0.9-3.1-1.4-4.7c-0.3-0.8-0.6-1.5-1-2.2c-0.4-0.7-1-1.3-1.5-2C46,11.3,45.1,10,44,8.8
			c-1.1-1.2-2.3-2.3-3.7-3.1c-1.4-0.8-2.9-1.5-4.5-2.1c-3-1.2-6.2-1.7-9.5-1.6c-1.7,0-3.3,0-4.9,0.1c-1.6,0.1-3.2,0.4-4.6,1.1
			c-0.3,0.2-0.7,0.4-1,0.7s-0.7,0.4-1,0.6c-0.7,0.4-1.4,0.8-2,1.3c-1.3,1-2.6,2-3.8,3.1c-1.2,1.1-2.3,2.3-3.3,3.6
			c-1,1.3-1.8,2.7-2.5,4.2c-1.1,3.1-1.6,6.4-1.3,9.6c0,0.8,0.1,1.6,0.2,2.4s0.3,1.6,0.3,2.4c0.1,0.8,0.2,1.6,0.5,2.4
			c0.3,0.8,0.6,1.5,0.9,2.3c1.3,3,3.1,5.7,5.2,8.1c4.6,4.8,10.9,7.5,17.5,7.6c3.3-0.1,6.5-0.8,9.5-2.1c3-1.2,5.8-3,8.2-5.2
			c2.2-2.3,3.5-5.4,4.8-8.5S51.6,29.5,51.6,26.3z"/>
		<path class="st0" d="M25.5,30.1l-0.6,2h-1.8l2.8-8.2h2.3l2.9,8.2h-1.8l-0.6-2L25.5,30.1z M26,28.7h2.2L28,28.1
			c-0.3-1-0.6-2.1-0.9-3.2l0,0c-0.3,1.1-0.6,2.1-0.9,3.2L26,28.7z"/>
		<path class="st0" d="M33.4,23l-0.2-8.4l1.6,0.3v3c0,1.2,0,2.4-0.1,3.6l0,0c0.4-1.1,0.9-2.2,1.4-3.4l1.2-2.8l2.1,0.4l0.2,3.1
			c0.1,1.2,0.1,2.4,0.1,3.6l0,0c0.4-1.1,0.8-2.3,1.2-3.4l1.1-2.8l1.6,0.3l-3.2,7.7l-2.2-0.4l-0.2-3.3c-0.1-1.2-0.1-2.4-0.1-3.6l0,0
			c-0.4,1.1-0.9,2.2-1.3,3.3l-1.3,3.1L33.4,23z"/>
		<path class="st0" d="M19.5,24.2l-0.4-4c-0.1-1-0.2-2-0.2-3.1l0,0c-0.1,1-0.3,2.1-0.5,3.1l-0.9,4.2l-1.9,0.2l-1.7-4
			c-0.4-1-0.8-1.9-1.2-2.9l0,0c0.1,1,0.3,2,0.4,3l0.4,4L11.8,25l-0.9-8.1l2.7-0.3l1.6,3.6c0.4,1,0.8,1.9,1.1,2.9l0,0
			c0.1-1,0.3-2.1,0.5-3.1l0.8-3.9l2.7-0.3l0.9,8.1L19.5,24.2z"/>
		<path class="st0" d="M26.7,41.7h-0.5c-0.6-0.1-1.3-0.2-1.9-0.3c-0.5-0.2-1-0.3-1.5-0.5l-0.2-0.1c-1.2-0.4-2.4-1-3.4-1.8
			c-0.6-0.4-1.1-0.8-1.6-1.3c-0.5-0.5-0.9-1-1.4-1.5l-0.1-0.1c-1-1.1-1.8-2.2-2.5-3.5c-0.4-0.7-0.2-1.6,0.3-2.1
			c0.2-0.2,0.4-0.3,0.7-0.2c0.4,0,0.8,0.3,1,0.7c0.1,0.1,0.1,0.3,0.1,0.4c0.3,1.3,0.9,2.4,1.6,3.5c0.7,1.1,1.5,2,2.5,2.8
			c0.9,0.7,1.9,1.2,3,1.5c1.1,0.3,2.2,0.6,3.3,0.7h0.4c1,0,1.9-0.2,2.9-0.6c1.1-0.3,2.2-0.8,3.1-1.5c1-0.7,1.9-1.6,2.6-2.6
			c0.8-1.1,1.3-2.3,1.7-3.6c0.1-0.5,0.6-0.9,1.1-0.9c0.1,0,0.3,0,0.4,0.1c0.6,0.4,0.9,1.2,0.7,1.8c0,0.2-0.1,0.3-0.2,0.4
			c-0.8,1.2-1.7,2.3-2.6,3.4c-0.9,1-1.9,1.9-3,2.7c-1,0.8-2.2,1.4-3.4,1.9c-0.6,0.2-1.2,0.4-1.8,0.6C27.7,41.7,27.2,41.7,26.7,41.7z
			"/>
	</g>
</g>
</svg>
