<?xml version="1.0" encoding="utf-8"?>
<!-- Generator: Adobe Illustrator 24.1.2, SVG Export Plug-In . SVG Version: 6.00 Build 0)  -->
<svg version="1.1" xmlns="http://www.w3.org/2000/svg" xmlns:xlink="http://www.w3.org/1999/xlink" x="0px" y="0px"
	 viewBox="0 0 251.4 251.4" style="enable-background:new 0 0 251.4 251.4;" xml:space="preserve">
<style type="text/css">
	.st0{opacity:2.000000e-02;}
	.st1{fill:#1D1D1B;}
	.st2{fill:#FFFFFF;stroke:#1D1D1B;stroke-width:0.25;stroke-miterlimit:10;}
	.st3{fill:#00000A;}
	.st4{fill:#0921EA;}
	.st5{fill:#3C3C3C;}
	.st6{fill:#F6F6F6;}
	.st7{fill:#3C3C3B;}
	.st8{fill:none;stroke:#FFFFFF;stroke-width:1.3956;stroke-miterlimit:10;}
	.st9{fill:#FFFFFF;stroke:#FFFFFF;stroke-width:0.22;stroke-miterlimit:10;}
	.st10{fill:none;stroke:#FFFFFF;stroke-width:1.5;stroke-miterlimit:10;}
	.st11{fill:#FFFFFF;}
	.st12{fill:none;stroke:#010101;stroke-linecap:round;stroke-linejoin:round;stroke-miterlimit:10;}
	.st13{fill:none;stroke:#0921EA;stroke-width:1.3956;stroke-miterlimit:10;}
	.st14{fill:#0921EA;stroke:#0921EA;stroke-width:0.22;stroke-miterlimit:10;}
	.st15{fill:#0921EA;stroke:#0921EA;stroke-width:0.3011;stroke-miterlimit:10;}
	.st16{fill:none;stroke:#0921EA;stroke-width:3;stroke-miterlimit:10;}
	.st17{fill:none;stroke:#0921EA;stroke-width:1.5;stroke-miterlimit:10;}
	.st18{fill:none;stroke:#0921EA;stroke-width:2;stroke-miterlimit:10;}
	.st19{clip-path:url(#SVGID_20_);fill:none;stroke:#0921EA;stroke-width:3;stroke-miterlimit:10;}
	.st20{clip-path:url(#SVGID_22_);fill:none;stroke:#0921EA;stroke-width:2.5;stroke-miterlimit:10;}
	.st21{clip-path:url(#SVGID_24_);fill:none;stroke:#0921EA;stroke-width:2.5;stroke-miterlimit:10;}
	.st22{clip-path:url(#SVGID_26_);fill:none;stroke:#0921EA;stroke-width:3;stroke-miterlimit:10;}
	.st23{clip-path:url(#SVGID_28_);fill:none;stroke:#0921EA;stroke-width:2.5;stroke-miterlimit:10;}
	.st24{clip-path:url(#SVGID_30_);fill:none;stroke:#0921EA;stroke-width:2.5;stroke-miterlimit:10;}
	.st25{clip-path:url(#SVGID_32_);fill:none;stroke:#0921EA;stroke-width:2.5;stroke-miterlimit:10;}
	.st26{clip-path:url(#SVGID_34_);fill:none;stroke:#0921EA;stroke-width:2.5;stroke-miterlimit:10;}
	.st27{fill:none;stroke:#0921EA;stroke-width:2;stroke-linecap:round;stroke-linejoin:round;stroke-miterlimit:10;}
	.st28{fill:none;stroke:#0921EA;stroke-width:4.84;stroke-linecap:round;stroke-linejoin:round;stroke-miterlimit:10;}
	.st29{fill:none;stroke:#0921EA;stroke-width:5.5;stroke-miterlimit:10;}
	.st30{clip-path:url(#SVGID_36_);fill:none;stroke:#0921EA;stroke-width:5.5;stroke-miterlimit:10;}
	.st31{clip-path:url(#SVGID_38_);fill:none;stroke:#0921EA;stroke-width:5.5;stroke-miterlimit:10;}
	.st32{clip-path:url(#SVGID_40_);fill:none;stroke:#0921EA;stroke-width:6.3826;stroke-miterlimit:10;}
	.st33{fill:none;stroke:#0921EA;stroke-width:5.5;stroke-linecap:round;stroke-miterlimit:10;}
	.st34{clip-path:url(#SVGID_42_);fill:none;stroke:#0921EA;stroke-width:5.5;stroke-miterlimit:10;}
	.st35{fill:none;stroke:#0921EA;stroke-width:6;stroke-linecap:round;stroke-linejoin:round;stroke-miterlimit:10;}
	.st36{fill:#706F6F;}
	.st37{fill:#0000FF;}
	.st38{opacity:0.1;fill:#FCEA10;}
	.st39{fill:none;stroke:#1D1D1B;stroke-linecap:round;stroke-linejoin:round;}
	.st40{fill:none;stroke:#1D1D1B;stroke-linecap:round;stroke-linejoin:round;stroke-dasharray:0,7.0027;}
	.st41{opacity:5.000000e-02;fill:#FCEA10;}
	.st42{opacity:5.000000e-02;fill:#706F6F;}
	.st43{fill:#FFFFFF;stroke:#1D1D1B;stroke-width:0.2;stroke-miterlimit:10;}
</style>
<g id="Layer_1">
	<path class="st11" d="M200.6,139.1c-4.4,6.5-8.9,12.9-14.1,18.8c-5.2,5.9-11.1,11.1-17.6,15.5c-3.2,2.2-6.6,4.2-10.1,5.9
		c-3.5,1.7-7.1,3.3-10.8,4.6c-3.7,1.2-7.6,2.1-11.5,2.7c-2,0.3-3.9,0.4-5.9,0.5c-2,0.1-4,0.1-5.9,0c-3.8-0.1-7.7-0.2-11.6-0.6
		c-3.9-0.4-7.8-1.2-11.6-2.4c-3.8-1.3-7.4-3-10.8-4.9c-3.4-1.9-6.6-4-9.9-6.2c-6.5-4.4-12.4-9.7-17.4-15.8c-5.1-6.2-9-13.1-12.6-20
		l0,0c-1-1.9-0.2-4.2,1.6-5.2s4.2-0.2,5.2,1.6c0.1,0.2,0.2,0.4,0.2,0.6c2.3,7.1,5.3,13.9,9.6,20c4.3,6,9.6,11.3,15.7,15.6
		c6.2,4.3,12.7,8.3,19.6,10.5c3.5,1.1,7.1,1.7,10.8,2c3.7,0.3,7.5,0.4,11.3,0.4c1.9,0,3.8,0,5.6,0c1.8-0.1,3.7-0.2,5.5-0.4
		c3.7-0.5,7.3-1.2,10.8-2.3c3.6-1.1,7-2.4,10.4-4c3.4-1.6,6.7-3.4,9.8-5.5c6.2-4.1,11.7-9.3,16.3-15.2c4.5-5.9,8.2-12.5,11-19.5
		c0.8-1.9,2.9-2.8,4.8-2c1.9,0.8,2.8,2.9,2,4.8C200.8,138.6,200.7,138.8,200.6,139.1L200.6,139.1z"/>
	<path class="st11" d="M97.9,91.6c-4,0.4-6.7-2.3-7.2-6.2s1.6-8.4,5.6-8.8c4-0.4,6.6,3.6,7.1,7.5C103.8,88,101.9,91.2,97.9,91.6z"/>
	<path class="st11" d="M165.2,94.3c-4,0.4-6.7-2.3-7.2-6.2s1.6-8.4,5.6-8.8c4-0.4,6.6,3.6,7.1,7.5S169.2,93.9,165.2,94.3z"/>
</g>
<g id="Layer_2">
</g>
<g id="Layer_3">
</g>
<g id="Layer_4">
</g>
<g id="Layer_5">
</g>
</svg>
