<?xml version="1.0" encoding="utf-8"?>
<!-- Generator: Adobe Illustrator 24.1.3, SVG Export Plug-In . SVG Version: 6.00 Build 0)  -->
<svg version="1.1" id="Layer_1" xmlns="http://www.w3.org/2000/svg" xmlns:xlink="http://www.w3.org/1999/xlink" x="0px" y="0px"
	 viewBox="0 0 249.1 248.9" style="enable-background:new 0 0 249.1 248.9;" xml:space="preserve">
<style type="text/css">
	.st0{fill:#FFFFFF;}
</style>
<g>
	<path class="st0" d="M90.8,7.3L93.8,19l-1.8,0.5l0.2,1.2l5-1.3L97,18.2l-1.9,0.5L93.9,14l2.7-0.7c1.3-0.3,2.4-1,2.9-1.9
		c0.5-0.9,0.6-2.1,0.3-3.3c-0.3-1.3-0.9-2.2-1.8-2.7c-0.9-0.6-2.2-0.6-3.6-0.3l-5.8,1.5L89,7.7L90.8,7.3z M92.1,6.9l2.6-0.7
		C95.8,6,96.6,6,97.3,6.4c0.6,0.4,1,1,1.3,2c0.1,0.2,0.1,0.4,0.1,0.6c0.1,0.7-0.1,1.5-0.5,2.1c-0.4,0.6-1.1,1-1.8,1.1l-2.8,0.7
		L92.1,6.9z"/>
	<polygon class="st0" points="115.3,10.6 115.8,15 110.6,15.5 109.9,9.9 112.2,9.7 112.5,12.2 113.7,12.1 113,6 111.8,6.1 112,8.5 
		109.8,8.8 109.2,3.5 114.5,2.9 115,7.1 116.2,6.9 115.7,1.6 105.8,2.6 105.9,3.8 107.9,3.6 109.3,15.7 107.3,15.9 107.4,17.1 
		117.2,16.1 116.6,10.5 	"/>
	<path class="st0" d="M128.4,1.1c-1.6,0-2.9,0.7-3.9,2.1c-0.9,1.3-1.5,3.2-1.5,5.3c-0.1,2.7,0.6,5,1.8,6.4c0.8,0.9,1.9,1.4,3.1,1.4
		c0.1,0,0.1,0,0.2,0c1.5,0,2.8-0.7,3.8-2c0.9-1.3,1.5-3.2,1.5-5.4c0.1-2.7-0.6-4.9-1.9-6.3C130.7,1.6,129.6,1.2,128.4,1.1z
		 M128.3,2.4c0,0,0.1,0,0.1,0c0.9,0,1.6,0.4,2.2,1c1,1.1,1.6,3.1,1.5,5.4v0c-0.1,3.9-1.6,6.3-4,6.3c0,0-0.1,0-0.1,0
		c-0.9,0-1.6-0.4-2.2-1c-1-1.1-1.6-3.1-1.5-5.5C124.4,4.8,125.9,2.4,128.3,2.4z"/>
	<path class="st0" d="M147.2,3.5l-5.8-1l-0.2,1.2l1.8,0.3l-2.1,11.9l-1.9-0.3l-0.1,1.2l5.1,0.9l0.2-1.2l-2-0.3l0.8-4.7l2.7,0.5
		c1.4,0.2,2.6,0.1,3.5-0.6c0.9-0.6,1.4-1.6,1.7-2.9C151.4,5.7,150,4,147.2,3.5z M144.3,4.2l2.7,0.5c1.1,0.2,1.9,0.6,2.3,1.2
		c0.4,0.6,0.5,1.3,0.3,2.4c0,0.2-0.1,0.5-0.1,0.7c-0.5,1.4-2,2.2-3.4,1.7l-2.8-0.5L144.3,4.2z"/>
	<polygon class="st0" points="165.4,17.4 164.1,17 162.7,21.5 157.8,19.9 161.6,8.4 163.8,9.1 164.2,7.9 158.7,6.1 158.3,7.3 
		160.4,7.9 156.6,19.5 154.5,18.8 154.1,19.9 163.5,23 	"/>
	<polygon class="st0" points="178.9,24 176.9,28 172.1,25.6 174.6,20.5 176.7,21.6 175.5,23.8 176.6,24.4 179.4,18.9 178.3,18.3 
		177.2,20.5 175.2,19.5 177.6,14.7 182.4,17.1 180.5,20.8 181.7,21.4 184.1,16.6 175.2,12.2 174.6,13.3 176.4,14.1 171,25 
		169.2,24.1 168.7,25.2 177.5,29.6 180,24.6 	"/>
	<polygon class="st0" points="196.8,41.9 195.5,40.7 199.3,36.3 203.1,39.7 199.2,44 197.9,42.9 197.1,43.8 200.7,47 201.5,46.1 
		200.2,44.9 208.3,35.9 209.6,37 210.4,36.1 206.8,33 206,33.9 207.3,35 203.9,38.8 200.1,35.4 203.5,31.6 204.8,32.8 205.6,31.9 
		202,28.7 201.2,29.6 202.5,30.8 194.5,39.8 193.1,38.7 192.4,39.6 196,42.8 	"/>
	<polygon class="st0" points="206.5,51.4 205.2,49.9 204.3,50.7 210.7,58.2 215,54.6 214.1,53.7 210.8,56.5 207.4,52.4 211.6,48.8 
		213.1,50.5 211.2,52.1 212,53.1 216.7,49.1 215.9,48.2 214,49.7 212.5,48 216.6,44.6 220,48.7 216.8,51.4 217.7,52.3 221.8,48.9 
		215.4,41.3 214.4,42.1 215.7,43.6 	"/>
	<polygon class="st0" points="216.3,64.3 215.2,62.4 214.2,63 219.4,71.4 224.5,68.2 223.8,67.1 219.7,69.7 217,65.3 227.3,58.9 
		228.5,60.9 229.5,60.3 226.5,55.3 225.4,56 226.6,57.8 	"/>
	<path class="st0" d="M223.9,77.8l-0.8-1.7l-1.1,0.5l2.1,4.7l1.1-0.5l-0.8-1.8l4.4-1.9l1.1,2.6c0.8,1.8,2.1,2.8,3.7,2.8
		c0.6,0,1.3-0.1,2-0.4c1.2-0.5,2-1.2,2.3-2.2c0.4-1,0.3-2.3-0.3-3.7l-2.4-5.4l-1.1,0.5l0.8,1.7L223.9,77.8z M230,76.6l5.6-2.5
		l1.1,2.5c0.5,1,0.5,1.9,0.3,2.6c-0.3,0.6-0.8,1.2-1.8,1.6c-0.2,0.1-0.4,0.2-0.7,0.3c-1.4,0.4-2.9-0.4-3.3-1.9L230,76.6z"/>
	<polygon class="st0" points="230.2,94.7 229.2,91 228,91.3 230.4,100 231.6,99.7 230.6,96 242.3,92.8 243.3,96.5 244.4,96.1 
		242,87.4 240.9,87.8 241.9,91.5 	"/>
	<polygon class="st0" points="233,107.3 232.8,105.5 231.6,105.6 232.2,110.4 233.4,110.2 233.2,108.5 244.1,107.1 232.8,113.8 
		232.6,113.9 232.8,115.3 246.1,113.7 246.3,115.3 247.5,115.2 246.9,110.5 245.7,110.7 245.9,112.4 235.5,113.7 246.5,107.2 
		246.4,106.4 246.4,106.3 246.4,106.3 246,103.8 244.8,104 245.1,105.7 	"/>
	<path class="st0" d="M248,126.9c0-1.3-0.4-2.4-1.3-3.4c-1.3-1.3-3.6-2.2-6.1-2.2c-5.6-0.1-7.7,2.7-7.7,5.3c0,1.5,0.5,2.8,1.7,3.6
		c1,0.7,2.3,1.2,4,1.2v1.9l1.1-0.1l0.1-5.4h-1.2v2.2c-2.1-0.1-4.4-0.8-4.4-3.5c0.1-3.1,3.5-4.1,6.5-4c2.9,0.1,6.2,1.2,6.2,4.2
		c0,2.3-2.1,3.3-4,3.3h-0.8v1.3l5.8,0.1v-1.3h-1.2C247.4,129.4,248,128.2,248,126.9z"/>
	<path class="st0" d="M242.5,155.5l-11.6-3.3l0.5-1.8l-1.1-0.5l-1.4,5l1.2,0.3l0.5-1.9l4.6,1.3l-0.8,2.7c-0.4,1.3-0.3,2.6,0.2,3.5
		c0.5,0.9,1.4,1.6,2.7,2c0.5,0.2,1,0.2,1.5,0.2c0.6,0,1.2-0.1,1.7-0.4c1-0.5,1.7-1.5,2.1-3l1.6-5.7l-1.2-0.3L242.5,155.5z
		 M242.2,156.8l-0.8,2.6c-0.6,2.1-1.8,2.8-3.8,2.2c-0.2,0-0.4-0.1-0.6-0.2c-1.4-0.6-2.1-2.2-1.5-3.6l0.8-2.7L242.2,156.8z"/>
	<polygon class="st0" points="236.9,172.1 225.9,167.1 226.7,165.3 225.6,164.8 221.5,173.8 226.6,176.1 227.1,175 223.2,173.2 
		225.4,168.3 230.5,170.6 229.5,172.7 227.2,171.6 226.7,172.8 232.3,175.3 232.8,174.2 230.6,173.2 231.5,171.1 236.4,173.3 
		234.2,178.2 230.4,176.4 229.9,177.6 234.7,179.8 238.8,170.8 237.7,170.3 	"/>
	<path class="st0" d="M225.1,182.5c-2.3-1.5-4.6-2.1-6.4-1.7c-1.2,0.3-2.2,0.9-2.8,2c-1.7,2.6-0.2,6.1,3.6,8.5
		c1.8,1.2,3.6,1.7,5.2,1.7c1.7,0,3.1-0.7,4-2.1c0.7-1,0.9-2.2,0.6-3.4C228.8,185.8,227.3,184,225.1,182.5z M227.5,190.3
		c-0.5,0.7-1.1,1.2-2,1.4c-1.3,0.3-3.1-0.1-4.8-1.1l-0.5-0.4c-3.3-2.2-4.6-4.8-3.3-6.8c1.3-2,4.2-2,7.5,0.2
		C227.5,185.7,228.8,188.3,227.5,190.3z"/>
	<path class="st0" d="M218.7,202.1l-9.2-7.9l1.2-1.5l-0.9-0.7l-3.4,3.9l0.9,0.8l1.3-1.5l3.6,3.1l-1.8,2.1c-0.9,1.1-1.4,2.2-1.3,3.3
		c0.1,1,0.6,2,1.6,2.9c0.9,0.8,1.9,1.2,2.8,1.2c0.1,0,0.2,0,0.2,0c1.1-0.1,2.1-0.7,3.1-1.8l3.9-4.5l-0.9-0.8L218.7,202.1z
		 M217.9,203.1l-1.8,2.1c-0.7,0.9-1.5,1.3-2.2,1.4c-0.7,0.1-1.4-0.2-2.2-0.9c-0.2-0.1-0.4-0.3-0.5-0.4c-0.5-0.5-0.7-1.3-0.7-2
		s0.4-1.4,0.9-1.9l1.9-2.1L217.9,203.1z"/>
	<polygon class="st0" points="206.4,215 198.5,205.9 200.1,204.4 199.3,203.5 191.8,210 195.7,214.5 196.7,213.7 193.6,210.1 
		197.5,206.7 205.5,215.9 203.7,217.4 204.5,218.3 208.9,214.5 208.1,213.6 	"/>
	<polygon class="st0" points="192.9,225.6 186.4,215.4 188,214.4 187.4,213.3 179,218.7 182,223.4 183.1,222.7 180.7,219 
		185.2,216.2 188.3,220.8 186.4,222.1 185,219.9 184,220.6 187.3,225.8 188.4,225.1 187.1,223.1 189,221.9 191.8,226.3 187.3,229.2 
		185.1,225.8 184,226.4 186.9,230.9 195.2,225.5 194.6,224.5 	"/>
	<polygon class="st0" points="165.4,239.6 161.7,228.1 163.3,227.6 162.9,226.4 158.3,227.9 158.7,229 160.4,228.5 162.2,234 
		157.4,235.6 155.6,230 157.2,229.5 156.9,228.3 152.3,229.8 152.6,231 154.3,230.4 158,242 156.3,242.5 156.7,243.7 161.3,242.2 
		161,241.1 159.3,241.6 157.7,236.7 162.5,235.2 164.1,240.1 162.4,240.6 162.8,241.7 167.4,240.3 167,239.1 	"/>
	<polygon class="st0" points="147.5,244.5 145.5,232.5 147.5,232.2 147.4,231 137.6,232.6 138.4,238.1 139.7,237.9 139,233.6 
		144.2,232.7 145.1,238.2 142.9,238.6 142.5,236.1 141.3,236.3 142.3,242.3 143.5,242.1 143.1,239.8 145.3,239.4 146.2,244.6 
		141,245.5 140.3,241.4 139,241.6 139.9,246.9 149.7,245.3 149.5,244.1 	"/>
	<polygon class="st0" points="129.5,234.4 131.6,234.4 131.6,233.1 121.7,233.3 121.9,239.3 123.2,239.3 123.1,234.5 128.1,234.4 
		128.4,246.5 126.1,246.6 126.1,247.8 131.9,247.6 131.9,246.4 129.7,246.5 	"/>
	<path class="st0" d="M110.7,233.6l2,0.2l-0.6,4.8l-2.8-0.3c-2.8-0.3-4.6,1.1-4.9,3.7c-0.2,1.3,0.1,2.3,0.7,3.1
		c0.7,0.9,1.8,1.4,3.3,1.6l5.9,0.7l0.2-1.2l-1.9-0.2l1.5-12l1.9,0.2l0.1-1.2l-5.1-0.6L110.7,233.6z M111.9,239.9l-0.7,6.1l-2.7-0.3
		c-2.1-0.3-3-1.3-2.7-3.4c0-0.2,0-0.4,0.1-0.6c0.2-0.7,0.6-1.3,1.3-1.7c0.4-0.3,0.9-0.4,1.4-0.4c0.2,0,0.4,0,0.7,0.1L111.9,239.9z"
		/>
	<polygon class="st0" points="91.2,229.5 94.9,230.5 91.8,242.1 88,241.1 87.7,242.3 96.4,244.7 96.7,243.5 93,242.5 96.2,230.9 
		99.9,231.9 100.2,230.6 91.5,228.3 	"/>
	<polygon class="st0" points="81.2,225.7 82.8,226.4 78.4,236.4 78.4,223.1 77.1,222.6 71.8,234.8 70.3,234.1 69.8,235.2 
		74.1,237.1 74.6,236 73,235.3 77.2,225.6 77.2,238.4 77.9,238.8 77.9,238.8 77.9,238.8 80.2,239.8 80.7,238.7 79.1,238 83.9,226.8 
		85.5,227.6 86,226.5 81.7,224.6 	"/>
	<path class="st0" d="M67.4,216.8c-2.4-1.5-5.1-0.6-7,2.4l-1.6-1l-0.6,1l4.6,2.9l0.6-1l-1.9-1.2c1.2-1.7,3-3.4,5.2-2
		c0.8,0.5,1.3,1.2,1.5,2.1c0.4,1.5-0.1,3.5-1.4,5.5c-1.7,2.7-4.4,4.7-6.8,3.2c-2-1.2-1.8-3.5-0.8-5.2l0.5-0.7l-1.1-0.7l-3,4.9
		l1.1,0.7l0.7-1.1c0.2,1.3,0.9,2.4,2.1,3.1c0.8,0.5,1.7,0.7,2.5,0.7c2.4,0,4.7-1.9,6.1-4.2C69.9,223,70.8,218.9,67.4,216.8z"/>
	<path class="st0" d="M44.2,199.7l1.4,1.4l-3.5,3.3l-1.9-2c-1-1-2-1.6-3.1-1.6c-1,0-2.1,0.4-3.1,1.3c-1,0.9-1.5,1.9-1.5,2.9
		c0,1.1,0.5,2.2,1.5,3.3l4.1,4.3l0.9-0.8l-1.3-1.4l8.8-8.3l1.3,1.4l0.9-0.8l-3.5-3.8L44.2,199.7z M41.2,205.3l-4.4,4.2l-1.9-2
		c-0.8-0.8-1.2-1.6-1.1-2.3c0-0.7,0.4-1.4,1.1-2.1c0.1-0.2,0.3-0.3,0.5-0.4c0.5-0.4,1.1-0.5,1.6-0.5c0.1,0,0.3,0,0.4,0
		c0.7,0.1,1.4,0.5,1.8,1.1L41.2,205.3z"/>
	<polygon class="st0" points="36.2,190.2 37.3,191.8 38.4,191.1 32.7,182.9 28.1,186.2 28.8,187.3 32.4,184.7 35.5,189.1 
		30.9,192.3 29.6,190.5 31.7,189 30.9,188 25.9,191.6 26.6,192.6 28.6,191.2 29.9,193 25.6,196.1 22.5,191.7 25.8,189.3 25.1,188.3 
		20.7,191.4 26.5,199.5 27.4,198.8 26.3,197.2 	"/>
	<path class="st0" d="M28,176.9c0.4-1.2,0.3-2.4-0.3-3.5c-1.4-2.8-5.1-3.3-9.2-1.2c-4,2-5.8,5.3-4.4,8.1c0.5,1.1,1.4,1.8,2.6,2.2
		c0.6,0.2,1.2,0.3,1.9,0.3c1.4,0,3-0.4,4.6-1.3C25.7,180.4,27.4,178.7,28,176.9z M26.8,176.4c-0.5,1.4-1.9,2.9-4.1,4
		c-3.4,1.7-6.3,1.5-7.4-0.6c-0.4-0.8-0.5-1.6-0.2-2.4c0.4-1.4,1.8-2.8,3.8-3.8l0,0l0.2-0.1c3.5-1.8,6.4-1.6,7.5,0.6
		C27,174.8,27.1,175.6,26.8,176.4z"/>
	<path class="st0" d="M21.2,162.4l0.6,1.8l1.1-0.4l-1.6-4.9l-1.1,0.4l0.6,1.9l-4.6,1.5l-0.9-2.7c-0.4-1.3-1.2-2.3-2.2-2.8
		c-0.9-0.5-2.1-0.5-3.3-0.1c-1.8,0.6-3.7,2.1-2.6,5.6l1.9,5.6l1.1-0.4l-0.6-1.8L21.2,162.4z M15.1,163L9.3,165l-0.9-2.6
		c-0.4-1.1-0.4-1.9-0.1-2.6c0.3-0.6,0.9-1.1,1.9-1.4c0.2-0.1,0.5-0.2,0.7-0.2c0.2,0,0.3,0,0.5,0c1.3,0,2.4,0.9,2.7,2.2L15.1,163z"/>
	<polygon class="st0" points="16.8,146.9 17.2,149 18.3,148.8 16.6,139 10.7,140.1 10.9,141.4 15.6,140.6 16.5,145.6 4.7,147.7 
		4.2,145.5 3.1,145.7 4,151.4 5.2,151.2 4.8,149 	"/>
	<polygon class="st0" points="14.7,131.6 14.8,133.5 16,133.5 15.6,123.6 10,123.8 10.1,125.1 14.5,124.9 14.7,130.3 9.1,130.5 
		9,128.2 11.5,128.1 11.5,126.9 5.3,127.1 5.3,128.3 7.8,128.2 7.9,130.5 2.6,130.7 2.3,125.3 6.5,125.2 6.5,123.9 1.1,124.1 
		1.5,134 2.7,134 2.6,132 	"/>
	<polygon class="st0" points="4.6,101.1 16.4,103.8 16,105.5 17.2,105.8 18.3,101.1 17.2,100.8 16.8,102.5 11.1,101.2 12.2,96.3 
		17.9,97.6 17.4,99.3 18.6,99.6 19.7,94.9 18.5,94.6 18.1,96.3 6.3,93.6 6.7,91.9 5.6,91.6 4.5,96.3 5.6,96.6 6,94.9 11,96.1 
		9.9,101 4.9,99.8 5.3,98.1 4.1,97.9 3,102.6 4.2,102.8 	"/>
	<polygon class="st0" points="9.5,83.4 20.8,87.8 20.1,89.6 21.2,90 24.8,80.8 19.6,78.8 19.1,80 23.2,81.5 21.3,86.5 16.1,84.5 
		16.9,82.4 19.2,83.3 19.7,82.1 13.9,79.9 13.5,81.1 15.7,81.9 14.9,84.1 10,82.1 11.9,77.2 15.8,78.7 16.3,77.5 11.3,75.5 
		7.7,84.8 8.8,85.2 	"/>
	<polygon class="st0" points="16.8,67 27.4,72.9 26.3,74.8 27.4,75.4 32.2,66.8 27,63.9 26.4,65 30.5,67.3 28,71.8 17.5,65.8 
		18.6,63.8 17.5,63.2 14.7,68.3 15.7,68.9 	"/>
	<path class="st0" d="M26,52.4l9.6,7.4l-1.2,1.5l1,0.8l3.2-4.2l-0.9-0.7l-1.2,1.6l-3.8-2.9l1.7-2.2c1.7-2.2,1.4-4.5-0.7-6.1
		c-2.2-1.6-4.3-1.2-6.1,1l-3.6,4.7l1,0.7L26,52.4z M26.8,51.3l1.7-2.2c1.3-1.7,2.7-1.9,4.4-0.7c0.2,0.1,0.4,0.2,0.5,0.4
		c0.5,0.5,0.8,1.2,0.8,2s-0.3,1.4-0.8,2l-1.7,2.2L26.8,51.3z"/>
	<polygon class="st0" points="48.4,45.2 40,36.5 42.7,33.9 41.9,33 35.4,39.3 36.3,40.2 39,37.5 47.4,46.2 44.7,48.8 45.5,49.7 
		52,43.4 51.2,42.6 	"/>
	<polygon class="st0" points="48.6,28.9 50,27.8 57.1,37.7 55.7,38.7 56.4,39.7 60.3,36.9 59.6,35.9 58.2,36.9 51.7,28 63.2,34.8 
		64.3,34 56.5,23.2 57.8,22.2 57.1,21.2 53.3,23.9 54,24.9 55.5,23.9 61.6,32.4 50.6,25.9 49.9,26.4 49.9,26.4 49.9,26.4 47.9,27.9 
			"/>
	<path class="st0" d="M71.9,29.1c0.7,0,1.5-0.2,2.3-0.6c1.3-0.7,2.2-1.8,2.4-3.2c0.2-1.2-0.1-2.6-0.8-4l1.7-0.9l-0.6-1.1L72,21.8
		l0.6,1.1l2-1c0.9,1.9,1.4,4.3-1,5.6c-0.8,0.4-1.7,0.5-2.6,0.3c-1.5-0.5-2.9-1.9-4-4c-1.5-2.8-1.8-6.2,0.7-7.5
		c0.8-0.4,1.7-0.5,2.5-0.2c1,0.3,1.8,1.1,2.4,2.2l0.4,0.8l1.1-0.6l-2.7-5.1l-1.1,0.6l0.6,1.1c-1.2-0.5-2.5-0.4-3.7,0.2
		c-3.3,1.8-3.1,5.9-1.3,9.2C67.1,26.8,69.3,29.1,71.9,29.1z"/>
</g>
</svg>
